<svg width="25" height="25" viewBox="0 0 25 25" fill="none" xmlns="http://www.w3.org/2000/svg">
<path d="M12.4966 8.32123C10.2014 8.32123 8.32828 10.192 8.32828 12.4845C8.32828 14.777 10.2014 16.6478 12.4966 16.6478C14.7919 16.6478 16.665 14.777 16.665 12.4845C16.665 10.192 14.7919 8.32123 12.4966 8.32123ZM24.9986 12.4845C24.9986 10.7605 25.0142 9.05206 24.9173 7.33116C24.8204 5.33229 24.3638 3.55829 22.9004 2.09662C21.4338 0.631822 19.6607 0.178953 17.6594 0.082133C15.9333 -0.0146872 14.2228 0.000928988 12.4998 0.000928988C10.7736 0.000928988 9.06313 -0.0146872 7.34013 0.082133C5.33881 0.178953 3.56265 0.634945 2.09918 2.09662C0.632595 3.56142 0.179172 5.33229 0.0822335 7.33116C-0.0147052 9.05519 0.000930124 10.7636 0.000930124 12.4845C0.000930124 14.2054 -0.0147052 15.9169 0.0822335 17.6378C0.179172 19.6367 0.635722 21.4107 2.09918 22.8724C3.56577 24.3372 5.33881 24.79 7.34013 24.8869C9.06626 24.9837 10.7768 24.9681 12.4998 24.9681C14.2259 24.9681 15.9364 24.9837 17.6594 24.8869C19.6607 24.79 21.4369 24.334 22.9004 22.8724C24.3669 21.4076 24.8204 19.6367 24.9173 17.6378C25.0174 15.9169 24.9986 14.2085 24.9986 12.4845ZM12.4966 18.8903C8.94743 18.8903 6.08305 16.0294 6.08305 12.4845C6.08305 8.93963 8.94743 6.07874 12.4966 6.07874C16.0458 6.07874 18.9102 8.93963 18.9102 12.4845C18.9102 16.0294 16.0458 18.8903 12.4966 18.8903ZM19.1729 7.31242C18.3442 7.31242 17.675 6.64405 17.675 5.81639C17.675 4.98873 18.3442 4.32036 19.1729 4.32036C20.0016 4.32036 20.6708 4.98873 20.6708 5.81639C20.671 6.01292 20.6324 6.20757 20.5572 6.38919C20.4821 6.57081 20.3717 6.73583 20.2326 6.87479C20.0935 7.01376 19.9282 7.12395 19.7464 7.19905C19.5646 7.27414 19.3697 7.31267 19.1729 7.31242Z" fill="#FCAB4C"/>
</svg>
