<svg width="13" height="13" viewBox="0 0 13 13" fill="none" xmlns="http://www.w3.org/2000/svg">
<path d="M6.24423 4.34514C5.09735 4.34514 4.16141 5.27994 4.16141 6.42542C4.16141 7.57089 5.09735 8.50569 6.24423 8.50569C7.39111 8.50569 8.32705 7.57089 8.32705 6.42542C8.32705 5.27994 7.39111 4.34514 6.24423 4.34514ZM12.4911 6.42542C12.4911 5.56397 12.4989 4.71032 12.4505 3.85043C12.4021 2.85165 12.1739 1.96524 11.4427 1.23488C10.7099 0.50296 9.82393 0.276674 8.82393 0.228295C7.96142 0.179917 7.10673 0.18772 6.24579 0.18772C5.38329 0.18772 4.5286 0.179917 3.66766 0.228295C2.66766 0.276674 1.78016 0.504521 1.04891 1.23488C0.316091 1.9668 0.0895275 2.85165 0.0410898 3.85043C-0.00734779 4.71188 0.000464758 5.56553 0.000464758 6.42542C0.000464758 7.2853 -0.00734779 8.14051 0.0410898 9.0004C0.0895275 9.99918 0.317653 10.8856 1.04891 11.616C1.78172 12.3479 2.66766 12.5742 3.66766 12.6225C4.53016 12.6709 5.38485 12.6631 6.24579 12.6631C7.1083 12.6631 7.96299 12.6709 8.82393 12.6225C9.82393 12.5742 10.7114 12.3463 11.4427 11.616C12.1755 10.884 12.4021 9.99918 12.4505 9.0004C12.5005 8.14051 12.4911 7.28686 12.4911 6.42542ZM6.24423 9.62619C4.47079 9.62619 3.03954 8.19669 3.03954 6.42542C3.03954 4.65414 4.47079 3.22464 6.24423 3.22464C8.01767 3.22464 9.44893 4.65414 9.44893 6.42542C9.44893 8.19669 8.01767 9.62619 6.24423 9.62619ZM9.58018 3.84107C9.16611 3.84107 8.83174 3.5071 8.83174 3.09355C8.83174 2.67999 9.16611 2.34602 9.58018 2.34602C9.99424 2.34602 10.3286 2.67999 10.3286 3.09355C10.3287 3.19175 10.3095 3.28901 10.2719 3.37976C10.2343 3.47051 10.1792 3.55296 10.1097 3.6224C10.0402 3.69184 9.9576 3.7469 9.86674 3.78442C9.77588 3.82194 9.6785 3.84119 9.58018 3.84107Z" fill="white"/>
</svg>
