<svg width="21" height="21" viewBox="0 0 21 21" fill="none" xmlns="http://www.w3.org/2000/svg">
<circle cx="10.5" cy="10.5" r="10" stroke="#AFAFAF"/>
<path fill-rule="evenodd" clip-rule="evenodd" d="M13.97 7.97004C14.11 7.83131 14.2989 7.75323 14.4959 7.75269C14.693 7.75214 14.8823 7.82918 15.0231 7.96713C15.1638 8.10508 15.2445 8.29288 15.2479 8.4899C15.2513 8.68693 15.1769 8.87737 15.041 9.02004L11.049 14.01C10.9804 14.0839 10.8976 14.1432 10.8055 14.1844C10.7135 14.2256 10.6141 14.2477 10.5133 14.2496C10.4124 14.2515 10.3123 14.233 10.2188 14.1953C10.1252 14.1575 10.0403 14.1013 9.96901 14.03L7.32401 11.384C7.25032 11.3154 7.19122 11.2326 7.15022 11.1406C7.10923 11.0486 7.08719 10.9493 7.08541 10.8486C7.08364 10.7479 7.10216 10.6478 7.13988 10.5544C7.1776 10.4611 7.23375 10.3762 7.30497 10.305C7.37619 10.2338 7.46102 10.1776 7.55441 10.1399C7.6478 10.1022 7.74782 10.0837 7.84853 10.0854C7.94923 10.0872 8.04854 10.1093 8.14054 10.1503C8.23254 10.1912 8.31534 10.2503 8.384 10.324L10.478 12.417L13.951 7.99204C13.9572 7.98429 13.9639 7.97694 13.971 7.97004H13.97Z" fill="#AFAFAF"/>
</svg>
