<svg width="18" height="18" viewBox="0 0 18 18" fill="none" xmlns="http://www.w3.org/2000/svg">
<path d="M1.99778 9.48843H0C0 4.36418 3.8687 0.499512 9 0.499512V2.49727C4.94251 2.49727 1.99778 5.43698 1.99778 9.48843Z" fill="white"/>
<path d="M8.45636 5.81718C6.44939 5.81718 5.59335 6.62181 5.59335 8.50826H3.68467C3.68467 5.61535 5.37862 4.02312 8.45636 4.02312V5.81718ZM5.19062 10.6997C5.374 10.543 5.61497 10.4595 5.86266 10.4667C6.11034 10.4739 6.34537 10.5713 6.5181 10.7383L8.80183 12.9459C9.35153 12.8472 10.4567 12.5234 11.5942 11.4568C12.7318 10.3866 13.0763 9.34519 13.1784 8.83209L10.8317 6.6846C10.6538 6.52236 10.55 6.30141 10.5424 6.06853C10.5347 5.83565 10.6238 5.6091 10.7907 5.43684L14.3169 1.79221C14.4839 1.6194 14.716 1.51458 14.9638 1.50001C15.2117 1.48544 15.4559 1.56226 15.6444 1.71417L17.7153 3.38354C17.8803 3.53919 17.9788 3.74634 17.9921 3.96571C18.0064 4.18997 18.2794 9.50217 13.897 13.6231C10.074 17.2157 5.2851 17.4785 3.9662 17.4785C3.77343 17.4785 3.65509 17.4732 3.6236 17.4714C3.39025 17.4591 3.16998 17.3661 3.00519 17.2103L1.23012 15.2629C1.06839 15.0857 0.986496 14.8563 1.00182 14.6234C1.01714 14.3904 1.12848 14.1722 1.31219 14.0151L5.19062 10.6997Z" fill="white"/>
</svg>
