<svg width="30" height="24" viewBox="0 0 30 24" fill="none" xmlns="http://www.w3.org/2000/svg">
<path d="M30 2.83772C28.8767 3.32699 27.6852 3.64799 26.4652 3.79001C27.7503 3.034 28.7119 1.84437 29.1709 0.442822C27.963 1.14787 26.6413 1.64434 25.2629 1.91071C24.687 1.30679 23.9912 0.825579 23.2184 0.496909C22.4456 0.168239 21.6125 -0.000890279 20.7705 3.52421e-06C17.3717 3.52421e-06 14.6157 2.70901 14.6157 6.05161C14.6157 6.52545 14.6702 6.98781 14.7754 7.43101C9.66001 7.17857 5.12513 4.76912 2.0894 1.10743C1.54205 2.03102 1.25443 3.08115 1.25605 4.15009C1.25525 5.14644 1.50476 6.12755 1.98244 7.00626C2.46011 7.88497 3.15114 8.63405 3.99413 9.18696C3.01691 9.15644 2.06123 8.89694 1.20658 8.43003C1.2058 8.45532 1.2058 8.48022 1.2058 8.50626C1.2058 11.4374 3.32714 13.8833 6.14236 14.4399C5.23587 14.6812 4.28543 14.7165 3.36299 14.5433C4.14607 16.947 6.41897 18.6972 9.11224 18.7463C6.93204 20.4285 4.23978 21.341 1.46838 21.3369C0.97165 21.3369 0.481929 21.3086 0 21.2522C2.81418 23.0301 6.08943 23.9737 9.43444 23.9704C20.7553 23.9704 26.946 14.7498 26.946 6.75376C26.946 6.49174 26.9397 6.23011 26.928 5.97001C28.1337 5.11422 29.174 4.05344 30 2.83772Z" fill="#FCAB4C"/>
</svg>
