<svg width="15" height="13" viewBox="0 0 15 13" fill="none" xmlns="http://www.w3.org/2000/svg">
<path d="M15 1.60613C14.4384 1.85077 13.8426 2.01127 13.2326 2.08228C13.8751 1.70427 14.356 1.10945 14.5855 0.408669C13.9815 0.761195 13.3206 1.00943 12.6315 1.14262C12.3435 0.840657 11.9956 0.60005 11.6092 0.435713C11.2228 0.271376 10.8062 0.186811 10.3852 0.187258C8.68583 0.187258 7.30783 1.54178 7.30783 3.21309C7.30783 3.45002 7.3351 3.6812 7.3877 3.9028C4.83001 3.77658 2.56256 2.57184 1.0447 0.740979C0.771023 1.20278 0.627215 1.72784 0.628027 2.26232C0.627624 2.7605 0.752382 3.25106 0.991218 3.69042C1.23005 4.12978 1.57557 4.50433 1.99707 4.78078C1.50845 4.76552 1.03061 4.63577 0.603288 4.40232C0.602899 4.41496 0.602899 4.42741 0.602899 4.44043C0.602899 5.90604 1.66357 7.12897 3.07118 7.40727C2.61793 7.52791 2.14272 7.5456 1.68149 7.45899C2.07304 8.66085 3.20949 9.53596 4.55612 9.56048C3.46602 10.4016 2.11989 10.8578 0.734192 10.8558C0.485825 10.8558 0.240965 10.8416 0 10.8135C1.40709 11.7024 3.04471 12.1743 4.71722 12.1726C10.3776 12.1726 13.473 7.56222 13.473 3.56417C13.473 3.43316 13.4699 3.30234 13.464 3.17229C14.0668 2.74439 14.587 2.214 15 1.60613Z" fill="white"/>
</svg>
