<svg width="34" height="24" viewBox="0 0 34 24" fill="none" xmlns="http://www.w3.org/2000/svg">
<path d="M33.2904 3.74443C33.0969 3.01936 32.7174 2.35813 32.1899 1.82693C31.6625 1.29573 31.0056 0.913188 30.285 0.717587C27.6326 1.45605e-07 17 0 17 0C17 0 6.36741 -1.45605e-07 3.71496 0.71377C2.99405 0.908736 2.33683 1.29107 1.80931 1.82236C1.28178 2.35366 0.902515 3.01522 0.709598 3.74061C-1.44754e-07 6.41248 0 11.9852 0 11.9852C0 11.9852 -1.44754e-07 17.558 0.709598 20.226C1.10045 21.6994 2.25402 22.8597 3.71496 23.2529C6.36741 23.9705 17 23.9705 17 23.9705C17 23.9705 27.6326 23.9705 30.285 23.2529C31.7498 22.8597 32.8996 21.6994 33.2904 20.226C34 17.558 34 11.9852 34 11.9852C34 11.9852 34 6.41248 33.2904 3.74443ZM13.6228 17.0999V6.87051L22.4263 11.9471L13.6228 17.0999Z" fill="#FCAB4C"/>
</svg>
