<svg width="17" height="13" viewBox="0 0 17 13" fill="none" xmlns="http://www.w3.org/2000/svg">
<path d="M16.6452 2.05949C16.5484 1.69695 16.3587 1.36633 16.095 1.10073C15.8313 0.835127 15.5028 0.643854 15.1425 0.546053C13.8163 0.187256 8.5 0.187256 8.5 0.187256C8.5 0.187256 3.18371 0.187256 1.85748 0.544144C1.49703 0.641629 1.16842 0.832796 0.904654 1.09845C0.64089 1.3641 0.451258 1.69488 0.354799 2.05758C-5.96046e-08 3.39353 0 6.17993 0 6.17993C0 6.17993 -5.96046e-08 8.96634 0.354799 10.3004C0.550223 11.0371 1.12701 11.6172 1.85748 11.8138C3.18371 12.1726 8.5 12.1726 8.5 12.1726C8.5 12.1726 13.8163 12.1726 15.1425 11.8138C15.8749 11.6172 16.4498 11.0371 16.6452 10.3004C17 8.96634 17 6.17993 17 6.17993C17 6.17993 17 3.39353 16.6452 2.05949ZM6.81138 8.73732V3.62255L11.2132 6.16085L6.81138 8.73732Z" fill="white"/>
</svg>
