<svg width="25" height="25" fill="none" xmlns="http://www.w3.org/2000/svg"><path d="M12.497 8.321a4.175 4.175 0 00-4.169 4.164 4.175 4.175 0 004.169 4.163 4.175 4.175 0 004.168-4.163 4.175 4.175 0 00-4.168-4.164zm12.502 4.164c0-1.724.015-3.433-.082-5.154-.097-1.999-.553-3.773-2.017-5.234C21.434.632 19.66.179 17.66.082 15.932-.015 14.222.001 12.5.001c-1.726 0-3.437-.016-5.16.081-2 .098-3.777.553-5.24 2.015C.632 3.56.18 5.332.081 7.33-.016 9.054 0 10.763 0 12.484c0 1.72-.016 3.432.081 5.153.097 1.999.554 3.773 2.017 5.234 1.467 1.465 3.24 1.918 5.241 2.015 1.726.097 3.437.081 5.16.081 1.726 0 3.436.016 5.16-.081 2-.097 3.777-.553 5.24-2.015 1.467-1.464 1.92-3.235 2.017-5.234.1-1.721.082-3.43.082-5.154zM12.497 18.89a6.4 6.4 0 01-6.414-6.405 6.4 6.4 0 016.414-6.406 6.4 6.4 0 016.413 6.406 6.4 6.4 0 01-6.413 6.405zm6.676-11.578a1.495 1.495 0 110-2.992 1.495 1.495 0 110 2.992z" fill="#FCAB4C"/></svg>