<svg width="13" height="13" fill="none" xmlns="http://www.w3.org/2000/svg"><path d="M6.244 4.345a2.086 2.086 0 00-2.083 2.08c0 1.146.936 2.08 2.083 2.08a2.086 2.086 0 002.083-2.08c0-1.145-.936-2.08-2.083-2.08zm6.247 2.08c0-.861.008-1.715-.04-2.575-.049-.998-.277-1.885-1.008-2.615C10.71.503 9.823.277 8.823.228 7.962.18 7.108.188 6.247.188c-.863 0-1.717-.008-2.578.04-1 .049-1.888.277-2.62 1.007C.317 1.967.09 2.852.042 3.85c-.048.862-.04 1.716-.04 2.575C0 7.285-.008 8.141.04 9c.049 1 .277 1.886 1.008 2.616.733.732 1.619.958 2.619 1.007.862.048 1.717.04 2.578.04.862 0 1.717.008 2.578-.04 1-.049 1.887-.277 2.619-1.007.732-.732.96-1.617 1.008-2.616.05-.86.04-1.713.04-2.575zM6.244 9.626a3.198 3.198 0 01-3.204-3.2 3.197 3.197 0 013.204-3.201 3.198 3.198 0 013.205 3.2 3.198 3.198 0 01-3.205 3.201zM9.58 3.841a.747.747 0 110-1.495.747.747 0 110 1.495z" fill="#fff"/></svg>