<svg width="18" height="18" fill="none" xmlns="http://www.w3.org/2000/svg"><path d="M1.998 9.488H0C0 4.364 3.869.5 9 .5v1.997c-4.057 0-7.002 2.94-7.002 6.991z" fill="#fff"/><path d="M8.456 5.817c-2.007 0-2.863.805-2.863 2.691H3.685c0-2.893 1.694-4.485 4.771-4.485v1.794zM5.191 10.7a.992.992 0 01.672-.233.985.985 0 01.655.271l2.284 2.208c.55-.099 1.655-.423 2.792-1.49 1.138-1.07 1.482-2.11 1.584-2.624l-2.346-2.147a.873.873 0 01-.29-.616.866.866 0 01.249-.632l3.526-3.645a.98.98 0 01.647-.292.994.994 0 01.68.214l2.071 1.67a.873.873 0 01.277.582c.014.224.287 5.536-4.095 9.657-3.823 3.593-8.612 3.856-9.93 3.856-.194 0-.312-.006-.343-.008a.975.975 0 01-.619-.26L1.23 15.262a.863.863 0 01-.228-.64.877.877 0 01.31-.608L5.191 10.7z" fill="#fff"/></svg>