<svg width="30" height="24" fill="none" xmlns="http://www.w3.org/2000/svg"><path d="M30 2.838c-1.123.489-2.315.81-3.535.952A6.087 6.087 0 0029.171.443a12.432 12.432 0 01-3.908 1.468A6.15 6.15 0 0023.218.497 6.24 6.24 0 0020.77 0c-3.398 0-6.154 2.709-6.154 6.052 0 .473.054.936.16 1.379A17.573 17.573 0 012.088 1.107a5.968 5.968 0 00-.107 5.899 6.087 6.087 0 002.012 2.181 6.22 6.22 0 01-2.787-.757l-.001.076c0 2.931 2.121 5.377 4.936 5.934a6.294 6.294 0 01-2.779.103c.783 2.404 3.056 4.154 5.75 4.203a12.487 12.487 0 01-7.645 2.59 12.5 12.5 0 01-1.468-.084 17.638 17.638 0 009.434 2.718c11.321 0 17.512-9.22 17.512-17.216 0-.262-.006-.524-.018-.784A12.363 12.363 0 0030 2.838z" fill="#FCAB4C"/></svg>