<svg width="15" height="13" fill="none" xmlns="http://www.w3.org/2000/svg"><path d="M15 1.606a6.23 6.23 0 01-1.767.476A3.044 3.044 0 0014.585.41c-.604.352-1.264.6-1.954.734A3.076 3.076 0 0011.61.436a3.12 3.12 0 00-1.224-.249c-1.7 0-3.077 1.355-3.077 3.026 0 .237.027.468.08.69A8.787 8.787 0 011.045.74a2.984 2.984 0 00-.053 2.95c.238.439.584.813 1.005 1.09a3.11 3.11 0 01-1.394-.379v.038c0 1.466 1.06 2.689 2.468 2.967-.453.12-.928.139-1.39.052A3.075 3.075 0 004.556 9.56a6.244 6.244 0 01-3.822 1.296c-.248 0-.493-.014-.734-.043a8.819 8.819 0 004.717 1.36c5.66 0 8.756-4.61 8.756-8.609 0-.13-.003-.262-.009-.392A6.183 6.183 0 0015 1.606z" fill="#fff"/></svg>