<svg width="34" height="24" fill="none" xmlns="http://www.w3.org/2000/svg"><path d="M33.29 3.744a4.291 4.291 0 00-1.1-1.917 4.256 4.256 0 00-1.905-1.11C27.633 0 17 0 17 0S6.367 0 3.715.714a4.249 4.249 0 00-1.906 1.108 4.286 4.286 0 00-1.1 1.919C0 6.412 0 11.985 0 11.985s0 5.573.71 8.241a4.274 4.274 0 003.005 3.027C6.367 23.97 17 23.97 17 23.97s10.633 0 13.285-.718a4.267 4.267 0 003.005-3.027c.71-2.668.71-8.24.71-8.24s0-5.574-.71-8.242zM13.623 17.1V6.87l8.803 5.077-8.803 5.153z" fill="#FCAB4C"/></svg>